<svg width="800" height="600" viewBox="0 0 800 600" xmlns="http://www.w3.org/2000/svg">
  <rect x="50" y="50" width="700" height="500" fill="none" stroke="#000" stroke-width="5"/>
  
  <!-- Living Room -->
  <rect x="50" y="50" width="300" height="250" fill="none" stroke="#000" stroke-width="2"/>
  <text x="200" y="175" font-family="Arial" font-size="16" text-anchor="middle">Living Room</text>
  
  <!-- Dining Room -->
  <rect x="350" y="50" width="200" height="150" fill="none" stroke="#000" stroke-width="2"/>
  <text x="450" y="125" font-family="Arial" font-size="16" text-anchor="middle">Dining Room</text>
  
  <!-- Kitchen -->
  <rect x="550" y="50" width="200" height="150" fill="none" stroke="#000" stroke-width="2"/>
  <text x="650" y="125" font-family="Arial" font-size="16" text-anchor="middle">Kitchen</text>
  
  <!-- Master Bedroom -->
  <rect x="50" y="300" width="250" height="250" fill="none" stroke="#000" stroke-width="2"/>
  <text x="175" y="425" font-family="Arial" font-size="16" text-anchor="middle">Master Bedroom</text>
  
  <!-- Bathroom 1 -->
  <rect x="300" y="300" width="150" height="100" fill="none" stroke="#000" stroke-width="2"/>
  <text x="375" y="350" font-family="Arial" font-size="16" text-anchor="middle">Bath 1</text>
  
  <!-- Bedroom 2 -->
  <rect x="300" y="400" width="150" height="150" fill="none" stroke="#000" stroke-width="2"/>
  <text x="375" y="475" font-family="Arial" font-size="16" text-anchor="middle">Bedroom 2</text>
  
  <!-- Bedroom 3 -->
  <rect x="450" y="300" width="150" height="150" fill="none" stroke="#000" stroke-width="2"/>
  <text x="525" y="375" font-family="Arial" font-size="16" text-anchor="middle">Bedroom 3</text>
  
  <!-- Bathroom 2 -->
  <rect x="450" y="450" width="150" height="100" fill="none" stroke="#000" stroke-width="2"/>
  <text x="525" y="500" font-family="Arial" font-size="16" text-anchor="middle">Bath 2</text>
  
  <!-- Office / Study -->
  <rect x="600" y="300" width="150" height="150" fill="none" stroke="#000" stroke-width="2"/>
  <text x="675" y="375" font-family="Arial" font-size="16" text-anchor="middle">Office</text>
  
  <!-- Garage -->
  <rect x="600" y="450" width="150" height="100" fill="none" stroke="#000" stroke-width="2"/>
  <text x="675" y="500" font-family="Arial" font-size="16" text-anchor="middle">Garage</text>
  
  <!-- Hallway -->
  <rect x="350" y="200" width="400" height="100" fill="none" stroke="#000" stroke-width="2"/>
  <text x="550" y="250" font-family="Arial" font-size="16" text-anchor="middle">Hallway</text>
  
  <!-- Door symbols (simplified) -->
  <line x1="350" y1="125" x2="380" y2="125" stroke="#000" stroke-width="2"/>
  <line x1="550" y1="125" x2="580" y2="125" stroke="#000" stroke-width="2"/>
  <line x1="200" y1="300" x2="230" y2="300" stroke="#000" stroke-width="2"/>
  <line x1="300" y1="350" x2="330" y2="350" stroke="#000" stroke-width="2"/>
  <line x1="375" y1="400" x2="375" y2="430" stroke="#000" stroke-width="2"/>
  <line x1="450" y1="375" x2="480" y2="375" stroke="#000" stroke-width="2"/>
  <line x1="525" y1="450" x2="525" y2="480" stroke="#000" stroke-width="2"/>
  <line x1="600" y1="375" x2="630" y2="375" stroke="#000" stroke-width="2"/>
  <line x1="675" y1="450" x2="675" y2="480" stroke="#000" stroke-width="2"/>
  
  <!-- Front Door -->
  <line x1="200" y1="50" x2="230" y2="50" stroke="#000" stroke-width="3"/>
  <text x="215" y="40" font-family="Arial" font-size="10" text-anchor="middle">Front Door</text>
  
  <!-- Back Door -->
  <line x1="650" y1="200" x2="650" y2="230" stroke="#000" stroke-width="3"/>
  <text x="670" y="215" font-family="Arial" font-size="10" text-anchor="middle">Back Door</text>
  
  <!-- Garage Door -->
  <line x1="675" y1="550" x2="675" y2="520" stroke="#000" stroke-width="3"/>
  <text x="695" y="535" font-family="Arial" font-size="10" text-anchor="middle">Garage Door</text>
</svg>
